<svg xmlns="http://www.w3.org/2000/svg" height="1200" width="1600" version="1.1" xmlns:xlink="http://www.w3.org/1999/xlink" xmlns:svgjs="http://svgjs.com/svgjs"><rect fill="#effaff" width="1600" height="1200"></rect><g><path d="M110.4 965.89H434.63" stroke="#333333" stroke-width="2" stroke-linecap="round" stroke-linejoin="round" opacity="1" fill="none"></path><path d="M453.36 965.89H668.98" stroke="#333333" stroke-width="2" stroke-linecap="round" stroke-linejoin="round" opacity="1" fill="none"></path><path d="M1176.18 1016.58H1344.32C1358.34 1016.58 1369.61 1005.31 1369.61 991.29 1369.61 977.27 1358.34 966.01 1344.32 966.01" stroke="#333333" stroke-width="2" stroke-linecap="round" stroke-linejoin="round" opacity="1" fill="none"></path><path d="M969.18 1051.86H1096.41C1115.84 1051.86 1131.7 1036.12 1131.7 1016.58" stroke="#333333" stroke-width="2" stroke-linecap="round" stroke-linejoin="round" opacity="1" fill="none"></path><path d="M875.86 1051.86H941.25" stroke="#333333" stroke-width="2" stroke-linecap="round" stroke-linejoin="round" opacity="1" fill="none"></path><path d="M1158.25 1016.58H1048.6" stroke="#333333" stroke-width="2" stroke-linecap="round" stroke-linejoin="round" opacity="1" fill="none"></path><path d="M788.62 1016.58H549.45" stroke="#333333" stroke-width="2" stroke-linecap="round" stroke-linejoin="round" opacity="1" fill="none"></path><path d="M528.53 1016.58H498.65" stroke="#333333" stroke-width="2" stroke-linecap="round" stroke-linejoin="round" opacity="1" fill="none"></path><path d="M316.59 1016.58H210.85" stroke="#333333" stroke-width="2" stroke-linecap="round" stroke-linejoin="round" opacity="1" fill="none"></path><path d="M336.13 1016.58H458.42C468.42 1016.58 476.35 1024.62 476.35 1034.51 476.35 1044.51 468.3 1052.44 458.42 1052.44H396.7" stroke="#333333" stroke-width="2" stroke-linecap="round" stroke-linejoin="round" opacity="1" fill="none"></path><path d="M442.56 1088.41H380.84C370.84 1088.41 362.91 1080.37 362.91 1070.48 362.91 1060.48 370.96 1052.55 380.84 1052.55" stroke="#333333" stroke-width="2" stroke-linecap="round" stroke-linejoin="round" opacity="1" fill="none"></path><path d="M460.14 1088.41H528.53" stroke="#333333" stroke-width="2" stroke-linecap="round" stroke-linejoin="round" opacity="1" fill="none"></path><path d="M549.45 1088.41H616.11" stroke="#333333" stroke-width="2" stroke-linecap="round" stroke-linejoin="round" opacity="1" fill="none"></path><path d="M688.06 965.89H1489.6" stroke="#333333" stroke-width="2" stroke-linecap="round" stroke-linejoin="round" opacity="1" fill="none"></path></g><g><path d="M1239.79 633.13C1200.87 519.48 1157.68 407.29 1110.21 296.43 1106.09 287.03 1102.94 276.78 1097.09 268.28 1085.47 251.28 1067.92 240.83 1046.62 238.25 1026.08 235.67 1004.41 241.39 984.01 244.66 951.84 249.89 919.89 255.11 887.73 260.48 823.61 271.42 759.65 282.92 695.68 294.9 630.82 307.03 566.11 320.06 501.39 333.09 483.99 336.57 466.07 340.19 451.45 349.6 425.65 366.11 416.13 394.96 405.48 420.67 397.23 440.67 389.44 460.6 382.09 480.95 367.54 521.78 352.92 564 344.67 606.58 341.52 623.09 340.39 638.56 345.94 654.86 351.34 670.68 361.99 684.55 375.26 695.49 391.53 708.66 408.18 721.41 424.23 734.58 458.05 762.52 490.59 791.92 521.64 822.51 536.79 837.42 551.56 852.55 566.11 868.01 573.23 875.47 580.13 883.13 587.03 890.8 601.57 906.96 620.47 918.04 643.87 918.39 659.91 918.53 674.54 912.68 689.31 907.8 700.33 903.97 711.58 900.14 722.6 896.3 744.87 888.64 766.92 880.7 788.82 872.68 835.38 855.68 881.58 837.91 927.39 819.52 1024.05 780.78 1119.21 738.9 1212.72 693.54 1234.92 683.36 1247.21 655.07 1239.79 633.13Z" fill="#deeff7" opacity="1" stroke-width="2" stroke="none"></path></g><g><path d="M800.66 929.65L539.89 848.87V536.74L588.18 535.42 800.66 589.86 1013.14 535.42 1060.11 536.74V848.87L800.66 929.65Z" fill="#46cdcf" stroke="#333333" stroke-width="2" stroke-linecap="round" stroke-linejoin="round" opacity="1"></path><path d="M539.89 808.04L800.66 888.82V589.86L588.18 535.42 539.89 536.74V808.04Z" fill="#78c7e0" stroke="#333333" stroke-width="2" stroke-linecap="round" stroke-linejoin="round" opacity="1"></path><path d="M800.66 929.65V588.98" stroke="#333333" stroke-width="2" stroke-linecap="round" stroke-linejoin="round" opacity="1" fill="none"></path><path d="M800.66 888.82C737.88 758 584.67 822.09 584.67 822.09L588.18 515.23C588.18 515.23 737.88 458.59 800.66 589.42V888.82Z" fill="#abedd8" stroke="#333333" stroke-width="2" stroke-linecap="round" stroke-linejoin="round" opacity="1"></path><path d="M652.71 607.86C652.71 607.86 717.69 592.05 750.17 645.61" stroke="#333333" stroke-width="2" stroke-linecap="round" stroke-linejoin="round" opacity="1" fill="none"></path><path d="M652.71 654.83C652.71 654.83 717.69 639.03 750.17 692.58" stroke="#333333" stroke-width="2" stroke-linecap="round" stroke-linejoin="round" opacity="1" fill="none"></path><path d="M652.71 701.36C652.71 701.36 717.69 685.56 750.17 739.12" stroke="#333333" stroke-width="2" stroke-linecap="round" stroke-linejoin="round" opacity="1" fill="none"></path><path d="M800.66 888.82L1060.11 808.04V536.74L1013.14 535.42 800.66 589.86V888.82Z" fill="#78c7e0" stroke="#333333" stroke-width="2" stroke-linecap="round" stroke-linejoin="round" opacity="1"></path><path d="M800.66 888.82C863.44 758 1018.84 821.21 1018.84 821.21L1013.14 515.66C1013.14 515.66 863.44 459.03 800.66 589.86V888.82Z" fill="#abedd8" stroke="#333333" stroke-width="2" stroke-linecap="round" stroke-linejoin="round" opacity="1"></path><path d="M948.16 607.86C948.16 607.86 883.19 592.05 850.71 645.61" stroke="#333333" stroke-width="2" stroke-linecap="round" stroke-linejoin="round" opacity="1" fill="none"></path><path d="M948.16 654.83C948.16 654.83 883.19 639.03 850.71 692.58" stroke="#333333" stroke-width="2" stroke-linecap="round" stroke-linejoin="round" opacity="1" fill="none"></path><path d="M948.16 701.36C948.16 701.36 883.19 685.56 850.71 739.12" stroke="#333333" stroke-width="2" stroke-linecap="round" stroke-linejoin="round" opacity="1" fill="none"></path></g><g><path d="M481.86 519.47C518.07 519.47 547.42 490.12 547.42 453.92 547.42 417.72 518.07 388.37 481.86 388.37 445.66 388.37 416.31 417.72 416.31 453.92 416.31 490.12 445.66 519.47 481.86 519.47Z" fill="#abedd8" stroke="#333333" stroke-width="2" stroke-linecap="round" stroke-linejoin="round" opacity="1"></path><path d="M516.55 509.44L494.73 474.64C501.82 470.39 506.3 462.65 506.3 453.92 506.3 440.5 495.39 429.6 481.97 429.6 468.56 429.6 457.65 440.5 457.65 453.92 457.65 462.65 462.34 470.39 469.21 474.64L447.39 509.44" stroke="#333333" stroke-width="2" stroke-linecap="round" stroke-linejoin="round" opacity="1" fill="none"></path></g><g><path d="M1169.12 794.72V966.07H1231.49V678.59C1231.49 661.41 1217.58 647.51 1200.4 647.51 1183.22 647.51 1169.32 661.41 1169.32 678.59V780.92" fill="#48466d" opacity="1" stroke-width="2" stroke="none"></path><path d="M1169.12 794.72V966.07H1231.49V678.59C1231.49 661.41 1217.58 647.51 1200.4 647.51 1183.22 647.51 1169.32 661.41 1169.32 678.59V780.92" stroke="#333333" stroke-width="2" stroke-linecap="round" stroke-linejoin="round" opacity="1" fill="none"></path><path d="M1216.81 742.69H1239.59C1251.66 742.69 1261.31 732.94 1261.31 720.97V685.54" stroke="#333333" stroke-width="2" stroke-linecap="round" stroke-linejoin="round" opacity="1" fill="none"></path><path d="M1216.81 687.09V718.46" stroke="#333333" stroke-width="2" stroke-linecap="round" stroke-linejoin="round" opacity="1" fill="none"></path><path d="M1216.81 733.14V751.96" stroke="#333333" stroke-width="2" stroke-linecap="round" stroke-linejoin="round" opacity="1" fill="none"></path><path d="M1216.81 846.27H1254.75" stroke="#333333" stroke-width="2" stroke-linecap="round" stroke-linejoin="round" opacity="1" fill="none"></path><path d="M1133.12 966.07H1331.2" stroke="#333333" stroke-width="2" stroke-linecap="round" stroke-linejoin="round" opacity="1" fill="none"></path></g></svg>